<svg width="16" height="15" viewBox="0 0 16 15" fill="none" xmlns="http://www.w3.org/2000/svg">
<g clip-path="url(#clip0_234_499)">
<path fill-rule="evenodd" clip-rule="evenodd" d="M9.12195 11.5438C8.82684 11.8359 8.42681 12 8.00973 12C7.59264 12 7.19261 11.8359 6.89751 11.5438L0.960761 5.6626C0.665642 5.37 0.499902 4.9732 0.5 4.5595C0.500098 4.1458 0.666027 3.74908 0.961285 3.45662C1.25654 3.16415 1.65694 2.9999 2.0744 3C2.49186 3.0001 2.89218 3.16453 3.1873 3.45714L8.00973 8.23617L12.8322 3.45714C13.1289 3.17287 13.5264 3.01547 13.939 3.01883C14.3517 3.02219 14.7465 3.18604 15.0385 3.4751C15.3304 3.76415 15.4962 4.15528 15.4999 4.56423C15.5037 4.97319 15.3453 5.36726 15.0587 5.66156L9.123 11.5449L9.12195 11.5438Z" fill="#141414"/>
</g>
<defs>
<clipPath id="clip0_234_499">
<rect width="15" height="15" fill="white" transform="translate(0.5)"/>
</clipPath>
</defs>
</svg>
