<svg width="16" height="15" viewBox="0 0 16 15" fill="none" xmlns="http://www.w3.org/2000/svg">
<g clip-path="url(#clip0_234_482)">
<path fill-rule="evenodd" clip-rule="evenodd" d="M2.375 2.8125C2.375 2.56386 2.47377 2.3254 2.64959 2.14959C2.8254 1.97377 3.06386 1.875 3.3125 1.875H12.6875C12.9361 1.875 13.1746 1.97377 13.3504 2.14959C13.5262 2.3254 13.625 2.56386 13.625 2.8125V4.11625C13.6249 4.44774 13.4932 4.76563 13.2587 5L9.875 8.38375V13.0237C9.87502 13.141 9.84507 13.2562 9.78801 13.3586C9.73095 13.461 9.64866 13.547 9.54896 13.6087C9.44927 13.6703 9.33548 13.7054 9.21839 13.7107C9.10131 13.7159 8.98482 13.6912 8.88 13.6388L6.55688 12.4775C6.42711 12.4126 6.31797 12.3129 6.24169 12.1895C6.16541 12.0661 6.12501 11.9238 6.125 11.7788V8.38375L2.74125 5C2.50681 4.76563 2.37507 4.44774 2.375 4.11625V2.8125Z" fill="white"/>
</g>
<defs>
<clipPath id="clip0_234_482">
<rect width="15" height="15" fill="white" transform="translate(0.5)"/>
</clipPath>
</defs>
</svg>
