<svg width="24" height="25" viewBox="0 0 24 25" fill="none" xmlns="http://www.w3.org/2000/svg">
<g clip-path="url(#clip0_130_232)">
<path d="M22.6798 1.37519C21.7993 0.457981 20.7398 0 19.5001 0H4.49992C3.26022 0 2.20071 0.457981 1.32019 1.37519C0.439662 2.29241 0 3.39607 0 4.68742V20.3126C0 21.6039 0.439662 22.7076 1.32019 23.6248C2.20071 24.542 3.26022 25 4.49992 25H8.0004C8.22864 25 8.40042 24.9912 8.51574 24.975C8.64991 24.947 8.77102 24.8724 8.8593 24.7635C8.97342 24.6384 9.03108 24.4569 9.03108 24.2192L9.02267 23.1118C9.01787 22.406 9.01547 21.8479 9.01547 21.435L8.65509 21.5001C8.42685 21.5439 8.13855 21.5626 7.78898 21.5576C7.42462 21.5506 7.06143 21.5125 6.70304 21.4438C6.32152 21.3704 5.96237 21.2031 5.65554 20.9558C5.33419 20.7025 5.09452 20.3533 4.96842 19.9547L4.81225 19.5793C4.68063 19.2832 4.51527 19.0046 4.31974 18.7497C4.0963 18.4456 3.86926 18.2404 3.63982 18.1315L3.53171 18.0502C3.45632 17.994 3.38775 17.9284 3.32749 17.855C3.26994 17.7869 3.22256 17.7101 3.18695 17.6273C3.15571 17.5509 3.18214 17.4884 3.26503 17.4396C3.34912 17.3895 3.49927 17.3657 3.7191 17.3657L4.03143 17.4158C4.23925 17.4583 4.49752 17.5885 4.80384 17.8049C5.11384 18.0251 5.3728 18.3145 5.56184 18.6521C5.80209 19.0963 6.09039 19.4354 6.42915 19.6694C6.76791 19.9021 7.10906 20.0198 7.45262 20.0198C7.79619 20.0198 8.0929 19.9922 8.34396 19.9384C8.58675 19.8861 8.82267 19.8038 9.0467 19.6932C9.1404 18.9674 9.39506 18.4068 9.8119 18.0164C9.27179 17.9613 8.73648 17.8634 8.21062 17.7236C7.69743 17.5768 7.20389 17.3636 6.74148 17.0892C6.25766 16.8148 5.83033 16.4441 5.48376 15.998C5.15101 15.5638 4.87712 14.9945 4.6633 14.29C4.45067 13.5843 4.34376 12.7697 4.34376 11.8474C4.34376 10.5348 4.75459 9.41739 5.57746 8.49392C5.19305 7.50788 5.22909 6.40047 5.68677 5.17543C5.98949 5.07658 6.43756 5.15041 7.03098 5.39441C7.62441 5.63842 8.05926 5.84739 8.33555 6.02007C8.61184 6.19526 8.83287 6.34166 8.99985 6.46053C9.97645 6.17743 10.9857 6.03512 11.9994 6.03759C13.0313 6.03759 14.0307 6.17899 15.0001 6.46053L15.5936 6.07012C16.05 5.78464 16.5315 5.54498 17.0315 5.35437C17.5841 5.13664 18.0045 5.07783 18.2976 5.17543C18.7661 6.40172 18.8069 7.50788 18.4213 8.49517C19.2442 9.41739 19.6562 10.5348 19.6562 11.8487C19.6562 12.7709 19.5493 13.588 19.3355 14.2975C19.1229 15.0083 18.8466 15.5776 18.5078 16.0068C18.1552 16.4471 17.726 16.8143 17.2429 17.0892C16.7384 17.382 16.2483 17.5935 15.7738 17.7236C15.2479 17.8638 14.7126 17.9621 14.1725 18.0177C14.713 18.5057 14.9845 19.2752 14.9845 20.3276V24.2192C14.9845 24.4031 15.0098 24.552 15.0626 24.6659C15.0869 24.7208 15.1216 24.77 15.1645 24.8106C15.2074 24.8512 15.2577 24.8824 15.3125 24.9024C15.4278 24.9449 15.5287 24.9725 15.6176 24.9825C15.7065 24.995 15.8338 24.9988 15.9996 24.9988H19.5001C20.7398 24.9988 21.7993 24.5408 22.6798 23.6236C23.5591 22.7076 24 21.6027 24 20.3113V4.68742C24 3.39607 23.5603 2.29241 22.6798 1.37519Z" fill="white"/>
</g>
<defs>
<clipPath id="clip0_130_232">
<rect width="24" height="25" fill="white"/>
</clipPath>
</defs>
</svg>
