<svg width="25" height="25" viewBox="0 0 25 25" fill="none" xmlns="http://www.w3.org/2000/svg">
<g clip-path="url(#clip0_130_228)">
<path d="M18.2692 0H6.73077C4.94624 0.00190892 3.23536 0.711655 1.97351 1.97351C0.711655 3.23536 0.00190892 4.94624 0 6.73077V18.2692C0.00190892 20.0538 0.711655 21.7646 1.97351 23.0265C3.23536 24.2883 4.94624 24.9981 6.73077 25H18.2692C20.0538 24.9981 21.7646 24.2883 23.0265 23.0265C24.2883 21.7646 24.9981 20.0538 25 18.2692V6.73077C24.9981 4.94624 24.2883 3.23536 23.0265 1.97351C21.7646 0.711655 20.0538 0.00190892 18.2692 0ZM12.5 18.2692C11.359 18.2692 10.2435 17.9309 9.29479 17.2969C8.34604 16.663 7.60659 15.762 7.16993 14.7078C6.73327 13.6536 6.61902 12.4936 6.84162 11.3745C7.06423 10.2554 7.6137 9.22738 8.42054 8.42054C9.22738 7.6137 10.2554 7.06423 11.3745 6.84162C12.4936 6.61902 13.6536 6.73327 14.7078 7.16993C15.762 7.60659 16.663 8.34604 17.2969 9.29479C17.9309 10.2435 18.2692 11.359 18.2692 12.5C18.2676 14.0296 17.6593 15.4961 16.5777 16.5777C15.4961 17.6593 14.0296 18.2676 12.5 18.2692ZM19.7115 6.73077C19.4263 6.73077 19.1474 6.64618 18.9102 6.4877C18.673 6.32921 18.4882 6.10396 18.379 5.84041C18.2699 5.57686 18.2413 5.28686 18.2969 5.00708C18.3526 4.7273 18.49 4.47031 18.6917 4.2686C18.8934 4.06689 19.1504 3.92952 19.4302 3.87387C19.7099 3.81822 19.9999 3.84678 20.2635 3.95594C20.527 4.06511 20.7523 4.24997 20.9108 4.48716C21.0693 4.72434 21.1538 5.0032 21.1538 5.28846C21.1538 5.67099 21.0019 6.03784 20.7314 6.30833C20.4609 6.57881 20.0941 6.73077 19.7115 6.73077ZM16.3462 12.5C16.3462 13.2607 16.1206 14.0043 15.698 14.6368C15.2753 15.2693 14.6747 15.7623 13.9719 16.0534C13.2691 16.3445 12.4957 16.4207 11.7497 16.2723C11.0036 16.1238 10.3183 15.7575 9.78036 15.2196C9.24246 14.6817 8.87615 13.9964 8.72775 13.2503C8.57934 12.5043 8.65551 11.7309 8.94662 11.0281C9.23772 10.3253 9.73069 9.72466 10.3632 9.30204C10.9957 8.87942 11.7393 8.65385 12.5 8.65385C13.5201 8.65385 14.4983 9.05906 15.2196 9.78036C15.9409 10.5017 16.3462 11.4799 16.3462 12.5Z" fill="white"/>
</g>
<defs>
<clipPath id="clip0_130_228">
<rect width="25" height="25" fill="white"/>
</clipPath>
</defs>
</svg>
