<svg width="24" height="25" viewBox="0 0 24 25" fill="none" xmlns="http://www.w3.org/2000/svg">
<path d="M2.4 22.9166C1.74 22.9166 1.1748 22.6614 0.704402 22.151C0.234002 21.6405 -0.000797963 21.0277 2.03735e-06 20.3124V4.68742C2.03735e-06 3.97127 0.235202 3.35799 0.705602 2.84758C1.176 2.33716 1.7408 2.08239 2.4 2.08325H21.6C22.26 2.08325 22.8252 2.33846 23.2956 2.84888C23.766 3.3593 24.0008 3.97214 24 4.68742V20.3124C24 21.0286 23.7648 21.6418 23.2944 22.1523C22.824 22.6627 22.2592 22.9174 21.6 22.9166H2.4ZM12 13.5741C12.1 13.5741 12.2052 13.5576 12.3156 13.5247C12.426 13.4917 12.5308 13.4431 12.63 13.3788L21.12 7.61711C21.28 7.5086 21.4 7.37275 21.48 7.20955C21.56 7.04636 21.6 6.86754 21.6 6.6731C21.6 6.23907 21.43 5.91355 21.09 5.69653C20.75 5.47952 20.4 5.49037 20.04 5.72909L12 11.1978L3.96 5.72909C3.6 5.49037 3.25 5.48516 2.91 5.71346C2.57 5.94176 2.4 6.26164 2.4 6.6731C2.4 6.89011 2.44 7.08021 2.52 7.24341C2.6 7.4066 2.72 7.53117 2.88 7.61711L11.37 13.3788C11.47 13.4439 11.5752 13.493 11.6856 13.526C11.796 13.5589 11.9008 13.575 12 13.5741Z" fill="white"/>
</svg>
