<svg width="25" height="25" viewBox="0 0 25 25" fill="none" xmlns="http://www.w3.org/2000/svg">
<g clip-path="url(#clip0_66_295)">
<path d="M12.5 25C5.59625 25 0 19.4037 0 12.5C0 5.59625 5.59625 0 12.5 0C19.4037 0 25 5.59625 25 12.5C25 19.4037 19.4037 25 12.5 25ZM10.0625 11.25C10.1708 10.7183 10.4156 10.224 10.7729 9.81572C11.1303 9.40741 11.5877 9.09917 12.1003 8.92132C12.6129 8.74347 13.163 8.70216 13.6964 8.80143C14.2298 8.9007 14.7282 9.13715 15.1425 9.4875L17.2675 8.07125C16.5374 7.27595 15.5938 6.70757 14.5494 6.43396C13.505 6.16036 12.404 6.19309 11.3777 6.52824C10.3514 6.86339 9.44324 7.48682 8.76164 8.32408C8.08003 9.16134 7.65377 10.1771 7.53375 11.25H6.25V13.75H7.53375C7.65357 14.8232 8.07977 15.8392 8.76145 16.6767C9.44314 17.5143 10.3515 18.1378 11.378 18.473C12.4046 18.8082 13.5059 18.8409 14.5504 18.567C15.595 18.2932 16.5387 17.7244 17.2687 16.9287L15.1425 15.5112C14.7282 15.8616 14.2298 16.098 13.6964 16.1973C13.163 16.2966 12.6129 16.2553 12.1003 16.0774C11.5877 15.8996 11.1303 15.5913 10.7729 15.183C10.4156 14.7747 10.1708 14.2804 10.0625 13.7487H16.25V11.2487H10.0625V11.25Z" fill="#141414"/>
</g>
<defs>
<clipPath id="clip0_66_295">
<rect width="25" height="25" fill="white"/>
</clipPath>
</defs>
</svg>
