<svg width="73" height="73" viewBox="0 0 73 73" fill="none" xmlns="http://www.w3.org/2000/svg">
<g clip-path="url(#clip0_106_335)">
<path d="M36.5 0C56.6663 0 73 16.3337 73 36.5C72.9981 44.1477 70.5979 51.6022 66.1373 57.8143C61.6767 64.0264 55.3803 68.6832 48.1344 71.1294C46.3094 71.4944 45.625 70.3538 45.625 69.3956C45.625 68.1637 45.6706 64.24 45.6706 59.3581C45.6706 55.9363 44.53 53.7463 43.2069 52.6056C51.3281 51.6931 59.86 48.5906 59.86 34.5837C59.86 30.5688 58.4456 27.3294 56.1188 24.7744C56.4838 23.8619 57.7613 20.1206 55.7538 15.1019C55.7538 15.1019 52.6969 14.0981 45.7163 18.8431C42.7963 18.0219 39.6938 17.6112 36.5913 17.6112C33.4888 17.6112 30.3863 18.0219 27.4663 18.8431C20.4856 14.1438 17.4288 15.1019 17.4288 15.1019C15.4213 20.1206 16.6988 23.8619 17.0638 24.7744C14.7369 27.3294 13.3225 30.6144 13.3225 34.5837C13.3225 48.545 21.8088 51.6931 29.93 52.6056C28.8806 53.5181 27.9225 55.115 27.6031 57.4875C25.5044 58.4456 20.2575 59.9969 16.9725 54.4762C16.2881 53.3812 14.235 50.6894 11.3606 50.735C8.30376 50.7806 10.1288 52.4688 11.4063 53.1531C12.9575 54.02 14.7369 57.2594 15.1475 58.3088C15.8775 60.3619 18.25 64.2856 27.4206 62.5975C27.4206 65.6544 27.4663 68.5287 27.4663 69.3956C27.4663 70.3538 26.7819 71.4488 24.9569 71.1294C17.6872 68.7096 11.364 64.0621 6.88431 57.8463C2.40465 51.6305 -0.00401719 44.1619 5.0293e-06 36.5C5.0293e-06 16.3337 16.3338 0 36.5 0Z" fill="#141414"/>
</g>
<defs>
<clipPath id="clip0_106_335">
<rect width="73" height="73" fill="white"/>
</clipPath>
</defs>
</svg>
