<svg width="89" height="89" viewBox="0 0 89 89" fill="none" xmlns="http://www.w3.org/2000/svg">
<rect width="89" height="89" fill="#F5D219"/>
<path d="M37.0521 47.9375C35.7917 49.3125 33.9583 50.2292 31.8958 50.2292H28.4583C24.6771 50.2292 21.5833 47.1355 21.5833 43.3542C21.5833 39.573 24.6771 36.4792 28.4583 36.4792H31.8958C33.9583 36.4792 35.7917 37.3959 37.0521 38.7709H42.4375C40.7188 34.7605 36.5938 31.8959 31.8958 31.8959H28.4583C22.1562 31.8959 17 37.0521 17 43.3542C17 49.6563 22.1562 54.8125 28.4583 54.8125H31.8958C36.5938 54.8125 40.6042 51.948 42.4375 47.9375H37.0521ZM60.5417 31.8959H57.1042C52.4062 31.8959 48.3958 34.7605 46.5625 38.7709H51.9479C53.2083 37.3959 55.0417 36.4792 57.1042 36.4792H60.5417C64.3229 36.4792 67.4167 39.573 67.4167 43.3542C67.4167 47.1355 64.3229 50.2292 60.5417 50.2292H57.1042C55.0417 50.2292 53.2083 49.3125 51.9479 47.9375H46.5625C48.2812 51.948 52.4062 54.8125 57.1042 54.8125H60.5417C66.8438 54.8125 72 49.6563 72 43.3542C72 37.0521 66.8438 31.8959 60.5417 31.8959Z" fill="#1976D2"/>
<path d="M39.3439 21.5834L35.3335 23.875L42.3231 33.1563L43.8127 32.2396L39.3439 21.5834ZM49.6564 21.5834L53.6668 23.875L46.6772 33.1563L45.1877 32.2396L49.6564 21.5834ZM49.6564 67.4167L53.6668 65.125L46.6772 55.8438L45.1877 56.7605L49.6564 67.4167ZM39.3439 67.4167L35.3335 65.125L42.3231 55.8438L43.8127 56.7605L39.3439 67.4167Z" fill="#00BCD4"/>
</svg>
