<svg width="25" height="25" viewBox="0 0 25 25" fill="none" xmlns="http://www.w3.org/2000/svg">
<path d="M4.68754 12.6302C3.95837 12.6302 3.34205 12.3785 2.83858 11.875C2.33511 11.3716 2.08337 10.7552 2.08337 10.0261C2.08337 9.29692 2.33511 8.6806 2.83858 8.17712C3.34205 7.67365 3.95837 7.42192 4.68754 7.42192C5.41671 7.42192 6.03303 7.67365 6.5365 8.17712C7.03997 8.6806 7.29171 9.29692 7.29171 10.0261C7.29171 10.7552 7.03997 11.3716 6.5365 11.875C6.03303 12.3785 5.41671 12.6302 4.68754 12.6302ZM9.37504 8.46358C8.64587 8.46358 8.02955 8.21185 7.52608 7.70837C7.02261 7.2049 6.77087 6.58858 6.77087 5.85942C6.77087 5.13025 7.02261 4.51393 7.52608 4.01046C8.02955 3.50699 8.64587 3.25525 9.37504 3.25525C10.1042 3.25525 10.7205 3.50699 11.224 4.01046C11.7275 4.51393 11.9792 5.13025 11.9792 5.85942C11.9792 6.58858 11.7275 7.2049 11.224 7.70837C10.7205 8.21185 10.1042 8.46358 9.37504 8.46358ZM15.625 8.46358C14.8959 8.46358 14.2796 8.21185 13.7761 7.70837C13.2726 7.2049 13.0209 6.58858 13.0209 5.85942C13.0209 5.13025 13.2726 4.51393 13.7761 4.01046C14.2796 3.50699 14.8959 3.25525 15.625 3.25525C16.3542 3.25525 16.9705 3.50699 17.474 4.01046C17.9775 4.51393 18.2292 5.13025 18.2292 5.85942C18.2292 6.58858 17.9775 7.2049 17.474 7.70837C16.9705 8.21185 16.3542 8.46358 15.625 8.46358ZM20.3125 12.6302C19.5834 12.6302 18.9671 12.3785 18.4636 11.875C17.9601 11.3716 17.7084 10.7552 17.7084 10.0261C17.7084 9.29692 17.9601 8.6806 18.4636 8.17712C18.9671 7.67365 19.5834 7.42192 20.3125 7.42192C21.0417 7.42192 21.658 7.67365 22.1615 8.17712C22.665 8.6806 22.9167 9.29692 22.9167 10.0261C22.9167 10.7552 22.665 11.3716 22.1615 11.875C21.658 12.3785 21.0417 12.6302 20.3125 12.6302ZM6.92712 23.0469C6.14587 23.0469 5.49032 22.7473 4.96046 22.148C4.4306 21.5487 4.16601 20.8417 4.16671 20.0271C4.16671 19.1243 4.47504 18.3344 5.09171 17.6573C5.70837 16.9802 6.32018 16.3118 6.92712 15.6521C7.4306 15.1139 7.86462 14.5282 8.22921 13.8948C8.59379 13.2615 9.02782 12.6667 9.53129 12.1105C9.91324 11.6591 10.3559 11.2858 10.8594 10.9907C11.3629 10.6955 11.9098 10.5476 12.5 10.5469C13.0903 10.5469 13.6372 10.6858 14.1407 10.9636C14.6441 11.2414 15.0868 11.6059 15.4688 12.0573C15.9549 12.6129 16.3848 13.2118 16.7584 13.8542C17.132 14.4966 17.5702 15.0955 18.073 15.6511C18.6806 16.3108 19.2924 16.9792 19.9084 17.6563C20.5243 18.3334 20.8327 19.1233 20.8334 20.0261C20.8334 20.8421 20.5684 21.5497 20.0386 22.149C19.5087 22.7483 18.8535 23.0476 18.073 23.0469C17.1355 23.0469 16.2066 22.9688 15.2865 22.8125C14.3664 22.6563 13.4375 22.5782 12.5 22.5782C11.5625 22.5782 10.6337 22.6563 9.71358 22.8125C8.79344 22.9688 7.86462 23.0469 6.92712 23.0469Z" fill="#141414"/>
</svg>
