<svg width="24" height="22" viewBox="0 0 24 22" fill="none" xmlns="http://www.w3.org/2000/svg">
<path d="M15.3048 8.55556C16.464 8.55556 17.4048 9.51378 17.4048 10.6944V16.4988C17.4048 17.9578 16.8357 19.357 15.8228 20.3887C14.8099 21.4204 13.4361 22 12.0036 22C10.5711 22 9.1973 21.4204 8.18438 20.3887C7.17145 19.357 6.6024 17.9578 6.6024 16.4988V10.6944C6.6024 9.51378 7.542 8.55556 8.7024 8.55556H15.3048ZM6.1572 8.55556C5.72498 9.08533 5.46501 9.73877 5.4132 10.4256L5.4012 10.6944V16.4988C5.4012 17.534 5.6316 18.5142 6.042 19.3893C5.33074 19.5831 4.58524 19.6077 3.86315 19.4612C3.14107 19.3147 2.46174 19.001 1.8777 18.5444C1.29365 18.0877 0.820547 17.5004 0.494956 16.8278C0.169365 16.1552 1.47597e-05 15.4154 0 14.6654V10.6944C1.96855e-05 10.1577 0.198205 9.6405 0.555216 9.24563C0.912226 8.85077 1.40196 8.60706 1.9272 8.56289L2.1 8.55556H6.1572ZM17.85 8.55556H21.9C23.0592 8.55556 24 9.51378 24 10.6944V14.6667C24.0002 15.4161 23.8312 16.1555 23.5061 16.8278C23.181 17.5001 22.7085 18.0873 22.1251 18.544C21.5417 19.0007 20.863 19.3147 20.1415 19.4617C19.42 19.6087 18.675 19.5848 17.964 19.3918C18.324 18.6242 18.5448 17.7784 18.594 16.8838L18.6048 16.4988V10.6944C18.6048 9.88167 18.3228 9.13611 17.85 8.55556ZM12 0C12.9548 0 13.8705 0.386309 14.5456 1.07394C15.2207 1.76158 15.6 2.69421 15.6 3.66667C15.6 4.63913 15.2207 5.57176 14.5456 6.25939C13.8705 6.94703 12.9548 7.33333 12 7.33333C11.0452 7.33333 10.1295 6.94703 9.45442 6.25939C8.77928 5.57176 8.4 4.63913 8.4 3.66667C8.4 2.69421 8.77928 1.76158 9.45442 1.07394C10.1295 0.386309 11.0452 0 12 0ZM19.8 1.22222C20.5956 1.22222 21.3587 1.54415 21.9213 2.11717C22.4839 2.6902 22.8 3.46739 22.8 4.27778C22.8 5.08816 22.4839 5.86535 21.9213 6.43838C21.3587 7.01141 20.5956 7.33333 19.8 7.33333C19.0044 7.33333 18.2413 7.01141 17.6787 6.43838C17.1161 5.86535 16.8 5.08816 16.8 4.27778C16.8 3.46739 17.1161 2.6902 17.6787 2.11717C18.2413 1.54415 19.0044 1.22222 19.8 1.22222ZM4.2 1.22222C4.99565 1.22222 5.75871 1.54415 6.32132 2.11717C6.88393 2.6902 7.2 3.46739 7.2 4.27778C7.2 5.08816 6.88393 5.86535 6.32132 6.43838C5.75871 7.01141 4.99565 7.33333 4.2 7.33333C3.40435 7.33333 2.64129 7.01141 2.07868 6.43838C1.51607 5.86535 1.2 5.08816 1.2 4.27778C1.2 3.46739 1.51607 2.6902 2.07868 2.11717C2.64129 1.54415 3.40435 1.22222 4.2 1.22222Z" fill="#141414"/>
</svg>
