<svg width="20" height="17" viewBox="0 0 20 17" fill="none" xmlns="http://www.w3.org/2000/svg">
<path d="M16 17L14.6 15.6L16.175 14H12V12H16.175L14.6 10.4L16 9L20 13L16 17ZM8.4 8L15 4.15V2H14.75L8.4 5.675L2.225 2H2V4.2L8.4 8ZM1.875 14C1.35833 14 0.916667 13.8167 0.55 13.45C0.183333 13.0833 0 12.6417 0 12.125V1.875C0 1.35833 0.183333 0.916667 0.55 0.55C0.916667 0.183333 1.35833 0 1.875 0H15.125C15.6417 0 16.0833 0.183333 16.45 0.55C16.8167 0.916667 17 1.35833 17 1.875V7.1C16.8333 7.06667 16.6667 7.04167 16.5 7.025C16.3333 7.00833 16.1667 7 16 7C14.3667 7 12.9583 7.58767 11.775 8.763C10.5917 9.93833 10 11.3507 10 13C10 13.1667 10.0083 13.3333 10.025 13.5C10.0417 13.6667 10.0667 13.8333 10.1 14H1.875Z" fill="#141414"/>
</svg>
