<svg width="20" height="20" viewBox="0 0 20 20" fill="none" xmlns="http://www.w3.org/2000/svg">
<path d="M0.963595 19C0.784977 19 0.622596 18.954 0.476454 18.862C0.330311 18.77 0.216645 18.6493 0.135455 18.5C0.0542648 18.35 0.00944777 18.1873 0.00100399 18.012C-0.0074398 17.8367 0.0373772 17.666 0.135455 17.5L9.14757 1.5C9.245 1.33333 9.37101 1.20833 9.52559 1.125C9.68018 1.04167 9.83834 1 10.0001 1C10.1624 1 10.3209 1.04167 10.4755 1.125C10.6301 1.20833 10.7558 1.33333 10.8526 1.5L19.8647 17.5C19.9621 17.6667 20.0069 17.8377 19.9991 18.013C19.9913 18.1883 19.9465 18.3507 19.8647 18.5C19.7835 18.65 19.6698 18.771 19.5237 18.863C19.3775 18.955 19.2152 19.0007 19.0365 19H0.963595ZM10.0001 16C10.2761 16 10.5077 15.904 10.6947 15.712C10.8818 15.52 10.975 15.2827 10.9744 15C10.9744 14.7167 10.8808 14.479 10.6938 14.287C10.5067 14.095 10.2755 13.9993 10.0001 14C9.72402 14 9.49247 14.096 9.3054 14.288C9.11834 14.48 9.02514 14.7173 9.02579 15C9.02579 15.2833 9.11932 15.521 9.30638 15.713C9.49344 15.905 9.72467 16.0007 10.0001 16ZM10.0001 13C10.2761 13 10.5077 12.904 10.6947 12.712C10.8818 12.52 10.975 12.2827 10.9744 12V9C10.9744 8.71666 10.8808 8.479 10.6938 8.287C10.5067 8.095 10.2755 7.99933 10.0001 8C9.72402 8 9.49247 8.096 9.3054 8.288C9.11834 8.48 9.02514 8.71733 9.02579 9V12C9.02579 12.2833 9.11932 12.521 9.30638 12.713C9.49344 12.905 9.72467 13.0007 10.0001 13Z" fill="#141414"/>
</svg>
