<svg width="15" height="15" viewBox="0 0 15 15" fill="none" xmlns="http://www.w3.org/2000/svg">
<path d="M7.5 10.8516C7.375 10.8516 7.25781 10.8322 7.14844 10.7934C7.03906 10.7547 6.9375 10.6881 6.84375 10.5938L3.46875 7.21875C3.29688 7.04688 3.21094 6.82813 3.21094 6.5625C3.21094 6.29688 3.29688 6.07813 3.46875 5.90625C3.64062 5.73438 3.86344 5.64469 4.13719 5.63719C4.41094 5.62969 4.63344 5.71156 4.80469 5.88281L6.5625 7.64063V0.937503C6.5625 0.671878 6.6525 0.449066 6.8325 0.269066C7.0125 0.0890659 7.235 -0.000621756 7.5 3.24394e-06C7.76562 3.24394e-06 7.98844 0.0900033 8.16844 0.270003C8.34844 0.450003 8.43812 0.672503 8.4375 0.937503V7.64063L10.1953 5.88281C10.3672 5.71094 10.59 5.62875 10.8637 5.63625C11.1375 5.64375 11.36 5.73375 11.5312 5.90625C11.7031 6.07813 11.7891 6.29688 11.7891 6.5625C11.7891 6.82813 11.7031 7.04688 11.5312 7.21875L8.15625 10.5938C8.0625 10.6875 7.96094 10.7541 7.85156 10.7934C7.74219 10.8328 7.625 10.8522 7.5 10.8516ZM1.875 15C1.35938 15 0.917814 14.8162 0.550314 14.4487C0.182814 14.0812 -0.000623408 13.64 1.59168e-06 13.125V11.25C1.59168e-06 10.9844 0.0900017 10.7616 0.270002 10.5816C0.450002 10.4016 0.672501 10.3119 0.937501 10.3125C1.20313 10.3125 1.42594 10.4025 1.60594 10.5825C1.78594 10.7625 1.87563 10.985 1.875 11.25V13.125H13.125V11.25C13.125 10.9844 13.215 10.7616 13.395 10.5816C13.575 10.4016 13.7975 10.3119 14.0625 10.3125C14.3281 10.3125 14.5509 10.4025 14.7309 10.5825C14.9109 10.7625 15.0006 10.985 15 11.25V13.125C15 13.6406 14.8162 14.0822 14.4487 14.4497C14.0812 14.8172 13.64 15.0006 13.125 15H1.875Z" fill="#141414"/>
</svg>
